<?xml version="1.0" encoding="utf-8"?>
<!-- Generator: Adobe Illustrator 18.0.0, SVG Export Plug-In . SVG Version: 6.00 Build 0)  -->
<!DOCTYPE svg PUBLIC "-//W3C//DTD SVG 1.1//EN" "http://www.w3.org/Graphics/SVG/1.1/DTD/svg11.dtd">
<svg version="1.1" id="Layer_1" xmlns="http://www.w3.org/2000/svg" xmlns:xlink="http://www.w3.org/1999/xlink" x="0px" y="0px"
	 viewBox="0 0 160.7 71.3" enable-background="new 0 0 160.7 71.3" xml:space="preserve">
<g>
	<g>
		<path d="M1.2,0.3h9.4v3H5.2v3.2h3.9v3H5.2V16h-4V0.3z"/>
		<path d="M16.1,4.7c3.3,0,5,2.4,5,5.7c0,3.4-1.6,5.8-5,5.8s-5-2.4-5-5.8C11.1,7.1,12.8,4.7,16.1,4.7z M16.1,14
			c0.9,0,1.3-0.8,1.3-3.6c0-2.6-0.3-3.5-1.3-3.5s-1.3,0.9-1.3,3.5C14.8,13.2,15.2,14,16.1,14z"/>
		<path d="M22.4,4.9h3.5v1.7h0c0.4-1.4,2-1.9,3.4-1.9v3.6C28.8,8.1,28.4,8,27.9,8c-1.2,0-1.6,0.3-2,0.9V16h-3.6V4.9z"/>
		<path d="M36.3,7.4h-1.5V4.9h1.5V1h3.6v4h2v2.5h-2v4.7c0,0.8,0,1.3,1.1,1.3c0.3,0,0.6,0,0.8-0.1V16c-0.7,0.2-1.7,0.3-2.5,0.3
			c-1.9,0-3-0.8-3-2.8V7.4z"/>
		<path d="M42.9,0.3h3.6v6.1h0c0.7-1.1,1.9-1.7,3.1-1.7c1.4,0,2.4,1,2.4,2.5V16h-3.6V8.2c0-0.6-0.2-1-0.9-1c-0.4,0-0.7,0.2-0.9,0.5
			l-0.2,0.3V16h-3.6V0.3z"/>
		<path d="M56.9,11.2c0,1,0.2,2.6,1.6,2.6c0.9,0,1.6-0.6,1.8-1.5l2.4,0.9c-0.2,0.5-1.3,3-4.4,3c-3.4,0-5-2.8-5-5.8
			c0-3.1,1.6-5.8,4.9-5.8c3.4,0,4.6,2.9,4.6,5.8v0.7H56.9z M59.5,9.1c0-1-0.1-2.2-1.3-2.2c-1,0-1.3,1.2-1.3,2.2H59.5z"/>
		<path d="M75.6,8.3c-0.3-0.7-0.8-1.4-1.7-1.4c-0.7,0-1.1,0.4-1.1,0.7c0,1.8,5.4,1.2,5.4,4.9c0,2.4-1.8,3.8-4.4,3.8
			c-2.5,0-4.1-1.3-4.6-3.1l2.7-0.9c0.4,0.8,0.9,1.6,1.9,1.6c0.7,0,1.1-0.3,1.1-0.8c0-1.8-5.4-1.1-5.4-5c0-1.2,1.1-3.4,4.3-3.4
			c1.8,0,3.6,0.8,4.2,3L75.6,8.3z"/>
		<path d="M79.6,4.9H83v1.2h0c0.7-0.8,1.6-1.3,2.5-1.3c2.2,0,3.6,1.9,3.6,5.2c0,2.8-0.8,5.9-3.8,5.9c-0.9,0-1.6-0.3-2.2-1v4.3h-3.6
			V4.9z M83.1,13.6c0.4,0.4,0.8,0.4,1.1,0.4c1.2,0,1.2-1.3,1.2-3.3c0-2.6,0-3.9-1-3.9c-0.6,0-1.1,0.5-1.3,0.9V13.6z"/>
		<path d="M94.7,4.7c3.3,0,5,2.4,5,5.7c0,3.4-1.6,5.8-5,5.8s-5-2.4-5-5.8C89.8,7.1,91.4,4.7,94.7,4.7z M94.7,14
			c0.9,0,1.3-0.8,1.3-3.6c0-2.6-0.3-3.5-1.3-3.5s-1.3,0.9-1.3,3.5C93.5,13.2,93.9,14,94.7,14z"/>
		<path d="M101,4.9h3.5v1.7h0c0.4-1.4,2-1.9,3.4-1.9v3.6C107.5,8.1,107,8,106.5,8c-1.2,0-1.6,0.3-2,0.9V16H101V4.9z"/>
		<path d="M109,7.4h-1.5V4.9h1.5V1h3.6v4h2v2.5h-2v4.7c0,0.8,0,1.3,1.1,1.3c0.3,0,0.6,0,0.8-0.1V16c-0.7,0.2-1.7,0.3-2.5,0.3
			c-1.9,0-3-0.8-3-2.8V7.4z"/>
		<path d="M125.9,4.7c3.3,0,5,2.4,5,5.7c0,3.4-1.6,5.8-5,5.8s-5-2.4-5-5.8C120.9,7.1,122.6,4.7,125.9,4.7z M125.9,14
			c0.9,0,1.3-0.8,1.3-3.6c0-2.6-0.3-3.5-1.3-3.5s-1.3,0.9-1.3,3.5C124.6,13.2,125,14,125.9,14z"/>
		<path d="M132.4,7.4H131V4.9h1.5V3.7c0-2.7,1.3-3.7,3.7-3.7c0.7,0,1.2,0.1,1.8,0.1v2.7c-0.2,0-0.5-0.1-0.7-0.1
			c-0.9,0-1.3,0.3-1.3,0.9v1.2h1.9v2.5H136V16h-3.6V7.4z"/>
		<path d="M144.5,0.3h3.6v3.2h-3.6V0.3z M144.5,4.9h3.6v11h-3.6V4.9z"/>
		<path d="M150.1,7.4h-1.5V4.9h1.5V1h3.6v4h2v2.5h-2v4.7c0,0.8,0,1.3,1.1,1.3c0.3,0,0.6,0,0.8-0.1V16c-0.7,0.2-1.7,0.3-2.5,0.3
			c-1.9,0-3-0.8-3-2.8V7.4z"/>
		<path d="M156.9,12.1h3.8V16h-3.8V12.1z"/>
	</g>
	<g>
		<path d="M0,26.3h11v3H7.5V42h-4V29.3H0V26.3z"/>
		<path d="M11.8,26.3h3.6v6.1h0c0.7-1.1,1.9-1.7,3.1-1.7c1.4,0,2.4,1,2.4,2.5V42h-3.6v-7.8c0-0.6-0.2-1-0.9-1
			c-0.4,0-0.7,0.2-0.9,0.5l-0.2,0.3V42h-3.6V26.3z"/>
		<path d="M25.7,37.2c0,1,0.2,2.6,1.6,2.6c0.9,0,1.6-0.6,1.8-1.5l2.4,0.9c-0.2,0.5-1.3,3-4.4,3c-3.4,0-5-2.8-5-5.8
			c0-3.1,1.6-5.8,4.9-5.8c3.4,0,4.6,2.9,4.6,5.8v0.7H25.7z M28.4,35.1c0-1-0.1-2.2-1.3-2.2c-1,0-1.3,1.2-1.3,2.2H28.4z"/>
		<path d="M38.9,30.9h3.6v1.5h0c0.7-1.1,1.9-1.7,3.1-1.7c1.4,0,2.4,1,2.4,2.5V42h-3.6v-7.8c0-0.6-0.2-1-0.9-1
			c-0.4,0-0.7,0.2-0.9,0.5l-0.2,0.3V42h-3.6V30.9z"/>
		<path d="M52.8,37.2c0,1,0.2,2.6,1.6,2.6c0.9,0,1.6-0.6,1.8-1.5l2.4,0.9c-0.2,0.5-1.3,3-4.4,3c-3.4,0-5-2.8-5-5.8
			c0-3.1,1.6-5.8,4.9-5.8c3.4,0,4.6,2.9,4.6,5.8v0.7H52.8z M55.5,35.1c0-1-0.1-2.2-1.3-2.2c-1,0-1.3,1.2-1.3,2.2H55.5z"/>
		<path d="M59,30.9h3.5l1,5.7h0l1.2-5.7h3l1,5.7h0l1.3-5.7h2.6l-2.9,11H67l-1.2-6.2h0L64.2,42h-2.8L59,30.9z"/>
		<path d="M79.2,26.3h10.2v2c-2.8,4.6-4.3,7.9-4.6,13.7h-4.5c0.6-4.3,2.8-8.6,5-12.4h-6.1V26.3z"/>
		<path d="M98.4,39.3h2.3V42h-8.4v-2.6h2.4v-9.2l-2.4,0.6v-2.7c0.9-0.1,3.3-1.1,3.8-1.8h2.2V39.3z"/>
		<path d="M113,30.2c0,1.6-1.1,2.8-2.6,3.4v0c2,0.6,3.1,2,3.1,4c0,3.2-3.1,4.6-5.9,4.6c-2.3,0-5.4-1.3-5.4-4.2
			c0-1.9,1.5-3.2,3.2-3.6v0c-1.6-0.6-2.5-2-2.5-3.6c0-3,2.6-4.6,5.3-4.6C110.7,26.1,113,27.3,113,30.2z M109.7,37.9
			c0-1.5-1.4-2-2.5-2.5c-0.7,0.9-1.1,1.2-1.1,2.4c0,1,0.8,1.7,1.8,1.7C108.8,39.6,109.7,39,109.7,37.9z M106.6,30
			c0,1.4,1.2,1.8,2.2,2.5c0.5-0.6,1.2-1.2,1.2-2.2c0-1.1-0.6-1.8-1.7-1.8C107.4,28.5,106.6,29.1,106.6,30z"/>
	</g>
	<g>
		<path d="M8.3,57.8c0-1.1-0.3-2.9-1.7-2.9c-1.7,0-1.9,2.4-1.9,5.3c0,3.2,0.2,5.2,2,5.2c1.5,0,1.8-1.2,1.9-3.1l3.4,0.3
			c0,3.4-2,5.7-5.5,5.7c-4.8,0-6.1-4.1-6.1-8.1c0-3.8,1.3-8.1,6.1-8.1c3.8,0,5.5,2.6,5.5,5.8H8.3z"/>
		<path d="M18.5,60.2c0-0.7-0.3-1.3-0.9-1.3c-0.8,0-1.1,0.8-1.2,1.5l-3.1-0.6c0.4-2.2,2.4-3.1,4.4-3.1c2.1,0,4.4,0.9,4.4,3.4v6.2
			c0,1.3,0.2,1.6,0.3,1.8h-3.7c-0.1-0.3-0.1-0.7-0.1-1c-0.6,0.7-1.6,1.3-2.7,1.3c-1.9,0-3.2-1.2-3.2-3.4c0-3,3.3-3.8,5.7-3.9V60.2z
			 M18.5,62.7c-1.4,0.1-2.2,0.4-2.2,2c0,0.8,0.4,1.2,1,1.2c0.3,0,0.7-0.2,1.1-0.7V62.7z"/>
		<path d="M26.5,56.9l1.3,6.4h0l1.5-6.4h2.8l-3.7,11.4c-0.7,2.3-2.4,2.9-4.5,2.9c-0.4,0-0.7,0-1.1-0.1v-2.5c0.3,0.1,0.6,0.1,0.9,0.1
			c1.1,0,2-0.3,2-1.3c0-0.3,0-0.6-0.2-1l-2.9-9.5H26.5z"/>
		<path d="M32.8,56.9h3.6v1.5h0c0.7-1.1,1.9-1.7,3.1-1.7c1.1,0,2.2,0.7,2.2,1.7h0c0.7-1.1,1.9-1.7,3.1-1.7c1.4,0,2.5,0.8,2.5,2.4v9
			h-3.6v-7.8c0-0.6-0.2-1-0.9-1c-0.4,0-0.7,0.2-0.9,0.5l-0.2,0.3V68h-3.6v-7.8c0-0.6-0.2-1-0.9-1c-0.4,0-0.7,0.2-0.9,0.5l-0.2,0.3
			V68h-3.6V56.9z"/>
		<path d="M54.4,60.2c0-0.7-0.3-1.3-0.9-1.3c-0.8,0-1.1,0.8-1.2,1.5l-3.1-0.6c0.4-2.2,2.4-3.1,4.4-3.1c2.1,0,4.4,0.9,4.4,3.4v6.2
			c0,1.3,0.2,1.6,0.3,1.8h-3.7c-0.1-0.3-0.1-0.7-0.1-1c-0.6,0.7-1.6,1.3-2.7,1.3c-1.9,0-3.2-1.2-3.2-3.4c0-3,3.3-3.8,5.7-3.9V60.2z
			 M54.4,62.7c-1.4,0.1-2.2,0.4-2.2,2c0,0.8,0.4,1.2,1,1.2c0.3,0,0.7-0.2,1.1-0.7V62.7z"/>
		<path d="M59.8,56.9h3.6v1.5h0c0.7-1.1,1.9-1.7,3.1-1.7c1.4,0,2.4,1,2.4,2.5V68h-3.6v-7.8c0-0.6-0.2-1-0.9-1
			c-0.4,0-0.7,0.2-0.9,0.5l-0.2,0.3V68h-3.6V56.9z"/>
		<path d="M70.9,64.2h3.8V68h-3.8V64.2z"/>
	</g>
</g>
</svg>
