<svg xmlns="http://www.w3.org/2000/svg" viewBox="0 0 88.2 19"><path fill="#ED1C24" d="M0 0h88v19H0z"/><path fill="none" stroke="#FFF" stroke-width=".534" stroke-miterlimit="10" d="M17.7 1.8v15.4"/><path fill="#FFF" d="M3.5 3.9l5.3 5.7-5.6 5.6h5.3l5.4-5.6-5.2-5.7zm25.8 1.7h1.9v6.2h2.6v1.3h-4.5V5.6zm6.5 5.2c0 .5.1 1.3.8 1.3.4 0 .8-.3.9-.7l1.1.4c-.1.2-.6 1.4-2.1 1.4-1.6 0-2.4-1.3-2.4-2.8 0-1.5.8-2.8 2.3-2.8 1.6 0 2.2 1.4 2.2 2.8v.4h-2.8zm1.2-1c0-.5-.1-1.1-.6-1.1s-.6.6-.6 1.1H37zm4.7-.4c0-.3-.1-.6-.4-.6-.4 0-.5.4-.6.7l-1.5-.3c.2-1 1.1-1.5 2.1-1.5s2.1.4 2.1 1.6v2.9c0 .6.1.8.2.9h-1.8c0-.1 0-.3-.1-.5-.3.4-.8.6-1.3.6-.9 0-1.5-.6-1.5-1.6 0-1.4 1.6-1.8 2.7-1.9v-.3zm0 1.2c-.7.1-1 .2-1 1 0 .4.2.6.5.6.1 0 .3-.1.5-.3v-1.3zm2.7-2.8h1.7v.8c.2-.7 1-.9 1.6-.9v1.7c-.2-.1-.5-.1-.7-.1-.6 0-.7.1-.9.4v3.4h-1.7V7.8zm3.8 0h1.7v.7c.4-.5.9-.8 1.5-.8.7 0 1.1.5 1.1 1.2v4.2h-1.7V9.4c0-.3-.1-.5-.4-.5-.2 0-.3.1-.4.2l-.1.1v3.9h-1.7V7.8zm8.1 0H58v.7c.4-.5.9-.8 1.5-.8.5 0 1 .3 1.1.8.4-.5.9-.8 1.5-.8.7 0 1.2.4 1.2 1.1v4.3h-1.7V9.4c0-.3-.1-.5-.4-.5-.2 0-.3.1-.4.2l-.1.1v3.9H59V9.4c0-.3-.1-.5-.4-.5-.2 0-.3.1-.4.2l-.2.1v3.9h-1.7V7.8zm10-.1c1.6 0 2.4 1.2 2.4 2.7 0 1.6-.8 2.8-2.4 2.8-1.6 0-2.4-1.1-2.4-2.8 0-1.6.8-2.7 2.4-2.7zm0 4.4c.4 0 .6-.4.6-1.7 0-1.2-.1-1.7-.6-1.7s-.6.5-.6 1.7c0 1.4.2 1.7.6 1.7zm3-4.3H71v.8c.2-.7 1-.9 1.6-.9v1.7c-.2-.1-.5-.1-.7-.1-.6 0-.7.1-.9.4v3.4h-1.7V7.8zm5.2 3c0 .5.1 1.3.8 1.3.4 0 .8-.3.9-.7l1.1.4c-.1.2-.6 1.4-2.1 1.4-1.6 0-2.4-1.3-2.4-2.8 0-1.5.8-2.8 2.3-2.8 1.6 0 2.2 1.4 2.2 2.8v.4h-2.8zm1.3-1c0-.5-.1-1.1-.6-1.1s-.6.6-.6 1.1h1.2z"/></svg>