<svg xmlns="http://www.w3.org/2000/svg" viewBox="0 0 160.7 71.3"><path d="M1.2.3h9.4v3H5.2v3.2h3.9v3H5.2V16h-4V.3zm14.9 4.4c3.3 0 5 2.4 5 5.7 0 3.4-1.6 5.8-5 5.8s-5-2.4-5-5.8c0-3.3 1.7-5.7 5-5.7zm0 9.3c.9 0 1.3-.8 1.3-3.6 0-2.6-.3-3.5-1.3-3.5s-1.3.9-1.3 3.5c0 2.8.4 3.6 1.3 3.6zm6.3-9.1h3.5v1.7c.4-1.4 2-1.9 3.4-1.9v3.6c-.5-.2-.9-.3-1.4-.3-1.2 0-1.6.3-2 .9V16h-3.6V4.9zm13.9 2.5h-1.5V4.9h1.5V1h3.6v4h2v2.5h-2v4.7c0 .8 0 1.3 1.1 1.3.3 0 .6 0 .8-.1V16c-.7.2-1.7.3-2.5.3-1.9 0-3-.8-3-2.8V7.4zM42.9.3h3.6v6.1c.7-1.1 1.9-1.7 3.1-1.7 1.4 0 2.4 1 2.4 2.5V16h-3.6V8.2c0-.6-.2-1-.9-1-.4 0-.7.2-.9.5l-.2.3v8h-3.6V.3zm14 10.9c0 1 .2 2.6 1.6 2.6.9 0 1.6-.6 1.8-1.5l2.4.9c-.2.5-1.3 3-4.4 3-3.4 0-5-2.8-5-5.8 0-3.1 1.6-5.8 4.9-5.8 3.4 0 4.6 2.9 4.6 5.8v.7h-5.9zm2.6-2.1c0-1-.1-2.2-1.3-2.2-1 0-1.3 1.2-1.3 2.2h2.6zm16.1-.8c-.3-.7-.8-1.4-1.7-1.4-.7 0-1.1.4-1.1.7 0 1.8 5.4 1.2 5.4 4.9 0 2.4-1.8 3.8-4.4 3.8-2.5 0-4.1-1.3-4.6-3.1l2.7-.9c.4.8.9 1.6 1.9 1.6.7 0 1.1-.3 1.1-.8 0-1.8-5.4-1.1-5.4-5 0-1.2 1.1-3.4 4.3-3.4 1.8 0 3.6.8 4.2 3l-2.4.6zm4-3.4H83v1.2c.7-.8 1.6-1.3 2.5-1.3 2.2 0 3.6 1.9 3.6 5.2 0 2.8-.8 5.9-3.8 5.9-.9 0-1.6-.3-2.2-1v4.3h-3.6V4.9zm3.5 8.7c.4.4.8.4 1.1.4 1.2 0 1.2-1.3 1.2-3.3 0-2.6 0-3.9-1-3.9-.6 0-1.1.5-1.3.9v5.9zm11.6-8.9c3.3 0 5 2.4 5 5.7 0 3.4-1.6 5.8-5 5.8s-5-2.4-5-5.8c.1-3.3 1.7-5.7 5-5.7zm0 9.3c.9 0 1.3-.8 1.3-3.6 0-2.6-.3-3.5-1.3-3.5s-1.3.9-1.3 3.5c.1 2.8.5 3.6 1.3 3.6zm6.3-9.1h3.5v1.7c.4-1.4 2-1.9 3.4-1.9v3.6c-.4-.2-.9-.3-1.4-.3-1.2 0-1.6.3-2 .9V16H101V4.9z"/><path d="M109 7.4h-1.5V4.9h1.5V1h3.6v4h2v2.5h-2v4.7c0 .8 0 1.3 1.1 1.3.3 0 .6 0 .8-.1V16c-.7.2-1.7.3-2.5.3-1.9 0-3-.8-3-2.8V7.4zm16.9-2.7c3.3 0 5 2.4 5 5.7 0 3.4-1.6 5.8-5 5.8s-5-2.4-5-5.8c0-3.3 1.7-5.7 5-5.7zm0 9.3c.9 0 1.3-.8 1.3-3.6 0-2.6-.3-3.5-1.3-3.5s-1.3.9-1.3 3.5c0 2.8.4 3.6 1.3 3.6zm6.5-6.6H131V4.9h1.5V3.7c0-2.7 1.3-3.7 3.7-3.7.7 0 1.2.1 1.8.1v2.7c-.2 0-.5-.1-.7-.1-.9 0-1.3.3-1.3.9v1.2h1.9v2.5H136V16h-3.6V7.4zM144.5.3h3.6v3.2h-3.6V.3zm0 4.6h3.6v11h-3.6v-11zm5.6 2.5h-1.5V4.9h1.5V1h3.6v4h2v2.5h-2v4.7c0 .8 0 1.3 1.1 1.3.3 0 .6 0 .8-.1V16c-.7.2-1.7.3-2.5.3-1.9 0-3-.8-3-2.8V7.4zm6.8 4.7h3.8V16h-3.8v-3.9zM0 26.3h11v3H7.5V42h-4V29.3H0v-3zm11.8 0h3.6v6.1c.7-1.1 1.9-1.7 3.1-1.7 1.4 0 2.4 1 2.4 2.5V42h-3.6v-7.8c0-.6-.2-1-.9-1-.4 0-.7.2-.9.5l-.2.3v8h-3.6V26.3zm13.9 10.9c0 1 .2 2.6 1.6 2.6.9 0 1.6-.6 1.8-1.5l2.4.9c-.2.5-1.3 3-4.4 3-3.4 0-5-2.8-5-5.8 0-3.1 1.6-5.8 4.9-5.8 3.4 0 4.6 2.9 4.6 5.8v.7h-5.9zm2.7-2.1c0-1-.1-2.2-1.3-2.2-1 0-1.3 1.2-1.3 2.2h2.6zm10.5-4.2h3.6v1.5c.7-1.1 1.9-1.7 3.1-1.7 1.4 0 2.4 1 2.4 2.5V42h-3.6v-7.8c0-.6-.2-1-.9-1-.4 0-.7.2-.9.5l-.2.3v8h-3.6V30.9zm13.9 6.3c0 1 .2 2.6 1.6 2.6.9 0 1.6-.6 1.8-1.5l2.4.9c-.2.5-1.3 3-4.4 3-3.4 0-5-2.8-5-5.8 0-3.1 1.6-5.8 4.9-5.8 3.4 0 4.6 2.9 4.6 5.8v.7h-5.9zm2.7-2.1c0-1-.1-2.2-1.3-2.2-1 0-1.3 1.2-1.3 2.2h2.6zm3.5-4.2h3.5l1 5.7 1.2-5.7h3l1 5.7 1.3-5.7h2.6l-2.9 11H67l-1.2-6.2-1.6 6.3h-2.8L59 30.9zm20.2-4.6h10.2v2c-2.8 4.6-4.3 7.9-4.6 13.7h-4.5c.6-4.3 2.8-8.6 5-12.4h-6.1v-3.3zm19.2 13h2.3V42h-8.4v-2.6h2.4v-9.2l-2.4.6v-2.7c.9-.1 3.3-1.1 3.8-1.8h2.2v13zm14.6-9.1c0 1.6-1.1 2.8-2.6 3.4 2 .6 3.1 2 3.1 4 0 3.2-3.1 4.6-5.9 4.6-2.3 0-5.4-1.3-5.4-4.2 0-1.9 1.5-3.2 3.2-3.6-1.6-.6-2.5-2-2.5-3.6 0-3 2.6-4.6 5.3-4.6 2.5-.1 4.8 1.1 4.8 4zm-3.3 7.7c0-1.5-1.4-2-2.5-2.5-.7.9-1.1 1.2-1.1 2.4 0 1 .8 1.7 1.8 1.7.9.1 1.8-.5 1.8-1.6zm-3.1-7.9c0 1.4 1.2 1.8 2.2 2.5.5-.6 1.2-1.2 1.2-2.2 0-1.1-.6-1.8-1.7-1.8-.9 0-1.7.6-1.7 1.5zM8.3 57.8c0-1.1-.3-2.9-1.7-2.9-1.7 0-1.9 2.4-1.9 5.3 0 3.2.2 5.2 2 5.2 1.5 0 1.8-1.2 1.9-3.1l3.4.3c0 3.4-2 5.7-5.5 5.7-4.8 0-6.1-4.1-6.1-8.1 0-3.8 1.3-8.1 6.1-8.1 3.8 0 5.5 2.6 5.5 5.8H8.3zm10.2 2.4c0-.7-.3-1.3-.9-1.3-.8 0-1.1.8-1.2 1.5l-3.1-.6c.4-2.2 2.4-3.1 4.4-3.1 2.1 0 4.4.9 4.4 3.4v6.2c0 1.3.2 1.6.3 1.8h-3.7c-.1-.3-.1-.7-.1-1-.6.7-1.6 1.3-2.7 1.3-1.9 0-3.2-1.2-3.2-3.4 0-3 3.3-3.8 5.7-3.9v-.9zm0 2.5c-1.4.1-2.2.4-2.2 2 0 .8.4 1.2 1 1.2.3 0 .7-.2 1.1-.7v-2.5zm8-5.8l1.3 6.4 1.5-6.4h2.8l-3.7 11.4c-.7 2.3-2.4 2.9-4.5 2.9-.4 0-.7 0-1.1-.1v-2.5c.3.1.6.1.9.1 1.1 0 2-.3 2-1.3 0-.3 0-.6-.2-1l-2.9-9.5h3.9zm6.3 0h3.6v1.5c.7-1.1 1.9-1.7 3.1-1.7 1.1 0 2.2.7 2.2 1.7.7-1.1 1.9-1.7 3.1-1.7 1.4 0 2.5.8 2.5 2.4v9h-3.6v-7.8c0-.6-.2-1-.9-1-.4 0-.7.2-.9.5l-.2.3V68h-3.6v-7.8c0-.6-.2-1-.9-1-.4 0-.7.2-.9.5l-.2.3v8h-3.6V56.9zm21.6 3.3c0-.7-.3-1.3-.9-1.3-.8 0-1.1.8-1.2 1.5l-3.1-.6c.4-2.2 2.4-3.1 4.4-3.1 2.1 0 4.4.9 4.4 3.4v6.2c0 1.3.2 1.6.3 1.8h-3.7c-.1-.3-.1-.7-.1-1-.6.7-1.6 1.3-2.7 1.3-1.9 0-3.2-1.2-3.2-3.4 0-3 3.3-3.8 5.7-3.9v-.9zm0 2.5c-1.4.1-2.2.4-2.2 2 0 .8.4 1.2 1 1.2.3 0 .7-.2 1.1-.7v-2.5zm5.4-5.8h3.6v1.5c.7-1.1 1.9-1.7 3.1-1.7 1.4 0 2.4 1 2.4 2.5V68h-3.6v-7.8c0-.6-.2-1-.9-1-.4 0-.7.2-.9.5l-.2.3v8h-3.6V56.9zm11.1 7.3h3.8V68h-3.8v-3.8z"/></svg>