<?xml version="1.0" encoding="utf-8"?>
<!-- Generator: Adobe Illustrator 18.0.0, SVG Export Plug-In . SVG Version: 6.00 Build 0)  -->
<!DOCTYPE svg PUBLIC "-//W3C//DTD SVG 1.1//EN" "http://www.w3.org/Graphics/SVG/1.1/DTD/svg11.dtd">
<svg version="1.1" id="Layer_1" xmlns="http://www.w3.org/2000/svg" xmlns:xlink="http://www.w3.org/1999/xlink" x="0px" y="0px"
	 viewBox="0 0 88.2 19" enable-background="new 0 0 88.2 19" xml:space="preserve">
<rect y="0" fill="#ED1C24" width="88" height="19"/>
<line fill="none" stroke="#FFFFFF" stroke-width="0.534" stroke-miterlimit="10" x1="17.7" y1="1.8" x2="17.7" y2="17.2"/>
<polygon fill="#FFFFFF" points="3.5,3.9 8.8,9.6 3.2,15.2 8.5,15.2 13.9,9.6 8.7,3.9 "/>
<g>
	<path fill="#FFFFFF" d="M29.3,5.6h1.9v6.2h2.6v1.3h-4.5V5.6z"/>
	<path fill="#FFFFFF" d="M35.8,10.8c0,0.5,0.1,1.3,0.8,1.3c0.4,0,0.8-0.3,0.9-0.7l1.1,0.4c-0.1,0.2-0.6,1.4-2.1,1.4
		c-1.6,0-2.4-1.3-2.4-2.8c0-1.5,0.8-2.8,2.3-2.8c1.6,0,2.2,1.4,2.2,2.8v0.4H35.8z M37,9.8c0-0.5-0.1-1.1-0.6-1.1
		c-0.5,0-0.6,0.6-0.6,1.1H37z"/>
	<path fill="#FFFFFF" d="M41.7,9.4c0-0.3-0.1-0.6-0.4-0.6c-0.4,0-0.5,0.4-0.6,0.7l-1.5-0.3c0.2-1,1.1-1.5,2.1-1.5
		c1,0,2.1,0.4,2.1,1.6v2.9c0,0.6,0.1,0.8,0.2,0.9h-1.8c0-0.1,0-0.3-0.1-0.5c-0.3,0.4-0.8,0.6-1.3,0.6c-0.9,0-1.5-0.6-1.5-1.6
		c0-1.4,1.6-1.8,2.7-1.9V9.4z M41.7,10.6c-0.7,0.1-1,0.2-1,1c0,0.4,0.2,0.6,0.5,0.6c0.1,0,0.3-0.1,0.5-0.3V10.6z"/>
	<path fill="#FFFFFF" d="M44.4,7.8h1.7v0.8h0c0.2-0.7,1-0.9,1.6-0.9v1.7c-0.2-0.1-0.5-0.1-0.7-0.1c-0.6,0-0.7,0.1-0.9,0.4v3.4h-1.7
		V7.8z"/>
	<path fill="#FFFFFF" d="M48.2,7.8h1.7v0.7h0c0.4-0.5,0.9-0.8,1.5-0.8c0.7,0,1.1,0.5,1.1,1.2v4.2h-1.7V9.4c0-0.3-0.1-0.5-0.4-0.5
		c-0.2,0-0.3,0.1-0.4,0.2l-0.1,0.1v3.9h-1.7V7.8z"/>
	<path fill="#FFFFFF" d="M56.3,7.8H58v0.7h0c0.4-0.5,0.9-0.8,1.5-0.8c0.5,0,1,0.3,1.1,0.8h0C61,8,61.5,7.7,62.1,7.7
		c0.7,0,1.2,0.4,1.2,1.1v4.3h-1.7V9.4c0-0.3-0.1-0.5-0.4-0.5c-0.2,0-0.3,0.1-0.4,0.2l-0.1,0.1v3.9h-1.7V9.4c0-0.3-0.1-0.5-0.4-0.5
		c-0.2,0-0.3,0.1-0.4,0.2L58,9.2v3.9h-1.7V7.8z"/>
	<path fill="#FFFFFF" d="M66.3,7.7c1.6,0,2.4,1.2,2.4,2.7c0,1.6-0.8,2.8-2.4,2.8c-1.6,0-2.4-1.1-2.4-2.8C63.9,8.8,64.7,7.7,66.3,7.7
		z M66.3,12.1c0.4,0,0.6-0.4,0.6-1.7c0-1.2-0.1-1.7-0.6-1.7s-0.6,0.5-0.6,1.7C65.7,11.8,65.9,12.1,66.3,12.1z"/>
	<path fill="#FFFFFF" d="M69.3,7.8H71v0.8h0c0.2-0.7,1-0.9,1.6-0.9v1.7c-0.2-0.1-0.5-0.1-0.7-0.1c-0.6,0-0.7,0.1-0.9,0.4v3.4h-1.7
		V7.8z"/>
	<path fill="#FFFFFF" d="M74.5,10.8c0,0.5,0.1,1.3,0.8,1.3c0.4,0,0.8-0.3,0.9-0.7l1.1,0.4c-0.1,0.2-0.6,1.4-2.1,1.4
		c-1.6,0-2.4-1.3-2.4-2.8c0-1.5,0.8-2.8,2.3-2.8c1.6,0,2.2,1.4,2.2,2.8v0.4H74.5z M75.8,9.8c0-0.5-0.1-1.1-0.6-1.1
		c-0.5,0-0.6,0.6-0.6,1.1H75.8z"/>
</g>
</svg>
